<svg width="20" height="20" viewBox="0 0 20 20" fill="none" xmlns="http://www.w3.org/2000/svg">
<path d="M19.1366 7.41243C19.079 7.24262 18.9729 7.09341 18.8314 6.98322C18.6899 6.87303 18.5192 6.80669 18.3405 6.79238L13.1113 6.37688L10.8485 1.36786C10.7764 1.20653 10.6592 1.0695 10.511 0.97332C10.3628 0.877135 10.1899 0.825903 10.0132 0.825806C9.83651 0.825709 9.66356 0.876751 9.51524 0.972773C9.36691 1.0688 9.24954 1.20569 9.1773 1.36694L6.91449 6.37688L1.68533 6.79238C1.50964 6.8063 1.34168 6.87054 1.20154 6.97742C1.06141 7.08429 0.955026 7.22928 0.895131 7.39503C0.835236 7.56079 0.824362 7.74028 0.863809 7.91205C0.903257 8.08383 0.991356 8.24059 1.11757 8.36361L4.98187 12.1307L3.6152 18.0487C3.5737 18.2278 3.587 18.4153 3.65337 18.5868C3.71974 18.7583 3.83612 18.9058 3.98741 19.0103C4.1387 19.1149 4.31791 19.1715 4.50178 19.1729C4.68565 19.1743 4.8657 19.1204 5.01856 19.0182L10.0129 15.6886L15.0072 19.0182C15.1635 19.1219 15.3477 19.1753 15.5352 19.1712C15.7227 19.1671 15.9045 19.1057 16.056 18.9952C16.2075 18.8847 16.3216 18.7305 16.3829 18.5532C16.4441 18.376 16.4497 18.1842 16.3987 18.0037L14.7211 12.1334L18.8816 8.38929C19.1541 8.14347 19.254 7.76007 19.1366 7.41243Z" fill="#F3CD03"/>
</svg>
