<svg width="20" height="20" viewBox="0 0 20 20" fill="none" xmlns="http://www.w3.org/2000/svg">
<path d="M19.1706 7.41915C19.113 7.24934 19.0068 7.10013 18.8653 6.98994C18.7239 6.87975 18.5532 6.81341 18.3744 6.7991L13.1453 6.38359L10.8825 1.37458C10.8104 1.21324 10.6932 1.07622 10.545 0.980034C10.3968 0.883849 10.2239 0.832617 10.0472 0.83252C9.87048 0.832423 9.69753 0.883465 9.54921 0.979487C9.40088 1.07551 9.28352 1.21241 9.21128 1.37366L6.94846 6.38359L1.71931 6.7991C1.54362 6.81302 1.37566 6.87726 1.23552 6.98413C1.09538 7.09101 0.989 7.236 0.929105 7.40175C0.86921 7.5675 0.858335 7.747 0.897783 7.91877C0.937231 8.09054 1.02533 8.24731 1.15154 8.37032L5.01585 12.1374L3.64917 18.0554C3.60767 18.2345 3.62097 18.422 3.68734 18.5935C3.75372 18.765 3.8701 18.9125 4.02138 19.0171C4.17267 19.1216 4.35188 19.1782 4.53575 19.1796C4.71963 19.181 4.89968 19.1271 5.05254 19.0249L10.0469 15.6954L15.0412 19.0249C15.1975 19.1286 15.3817 19.182 15.5692 19.1779C15.7567 19.1738 15.9384 19.1124 16.09 19.0019C16.2415 18.8914 16.3556 18.7372 16.4169 18.5599C16.4781 18.3827 16.4836 18.1909 16.4327 18.0105L14.755 12.1402L18.9156 8.396C19.188 8.15018 19.288 7.76678 19.1706 7.41915Z" fill="#F3CD03"/>
</svg>
